GRF
version=1
nRows=7
nColumns=46
inDegrees=no
endheader
time	plate1_ground_force_vx	plate1_ground_force_vy	plate1_ground_force_vz	plate1_ground_force_px	plate1_ground_force_py	plate1_ground_force_pz	plate1_ground_torque_x	plate1_ground_torque_y	plate1_ground_torque_z	plate2_ground_force_vx	plate2_ground_force_vy	plate2_ground_force_vz	plate2_ground_force_px	plate2_ground_force_py	plate2_ground_force_pz	plate2_ground_torque_x	plate2_ground_torque_y	plate2_ground_torque_z	plate3_ground_force_vx	plate3_ground_force_vy	plate3_ground_force_vz	plate3_ground_force_px	plate3_ground_force_py	plate3_ground_force_pz	plate3_ground_torque_x	plate3_ground_torque_y	plate3_ground_torque_z	plate4_ground_force_vx	plate4_ground_force_vy	plate4_ground_force_vz	plate4_ground_force_px	plate4_ground_force_py	plate4_ground_force_pz	plate4_ground_torque_x	plate4_ground_torque_y	plate4_ground_torque_z	plate5_ground_force_vx	plate5_ground_force_vy	plate5_ground_force_vz	plate5_ground_force_px	plate5_ground_force_py	plate5_ground_force_pz	plate5_ground_torque_x	plate5_ground_torque_y	plate5_ground_torque_z
      0.25000000	    149.54167146	    713.47329748	     24.43055741	     -0.71851777	      0.00000000	      0.09284311	     -0.00000000	     16.77666517	     -0.00000000	      0.00000000	      0.00000000	      0.00000000	      0.00000000	      0.00000000	      0.00000000	      0.00000000	      0.00000000	      0.00000000	      0.00000000	      0.00000000	      0.00000000	      0.00000000	      0.00000000	      0.00000000	      0.00000000	      0.00000000	      0.00000000	      0.00000000	      0.00000000	      0.00000000	      0.00000000	      0.00000000	      0.00000000	      0.00000000	      0.00000000	      0.00000000	      0.00000000	      0.00000000	      0.00000000	      0.00000000	      0.00000000	      0.00000000	      0.00000000	      0.00000000	      0.00000000
      0.26000000	    144.77267953	    598.33162833	     19.53382418	     -0.71591193	      0.00000000	      0.09394403	     -0.00000000	     15.68243765	     -0.00000000	      0.00000000	      0.00000000	      0.00000000	      0.00000000	      0.00000000	      0.00000000	      0.00000000	      0.00000000	      0.00000000	      0.00000000	      0.00000000	      0.00000000	      0.00000000	      0.00000000	      0.00000000	      0.00000000	      0.00000000	      0.00000000	      0.00000000	      0.00000000	      0.00000000	      0.00000000	      0.00000000	      0.00000000	      0.00000000	      0.00000000	      0.00000000	      0.00000000	      0.00000000	      0.00000000	      0.00000000	      0.00000000	      0.00000000	      0.00000000	      0.00000000	      0.00000000
      0.27000000	    132.61223743	    483.39143244	     15.10808921	     -0.71285627	      0.00000000	      0.09492494	     -0.00000000	     14.02674536	     -0.00000000	      0.00000000	      0.00000000	      0.00000000	      0.00000000	      0.00000000	      0.00000000	      0.00000000	      0.00000000	      0.00000000	      0.00000000	      0.00000000	      0.00000000	      0.00000000	      0.00000000	      0.00000000	      0.00000000	      0.00000000	      0.00000000	      0.00000000	      0.00000000	      0.00000000	      0.00000000	      0.00000000	      0.00000000	      0.00000000	      0.00000000	      0.00000000	      0.00000000	      0.00000000	      0.00000000	      0.00000000	      0.00000000	      0.00000000	      0.00000000	      0.00000000	      0.00000000
      0.28000000	    114.71879348	    374.72380612	     11.21484632	     -0.70931892	      0.00000000	      0.09580028	     -0.00000000	     11.95034524	     -0.00000000	      0.00000000	      0.00000000	      0.00000000	      0.00000000	      0.00000000	      0.00000000	      0.00000000	      0.00000000	      0.00000000	      0.00000000	      0.00000000	      0.00000000	      0.00000000	      0.00000000	      0.00000000	      0.00000000	      0.00000000	      0.00000000	      0.00000000	      0.00000000	      0.00000000	      0.00000000	      0.00000000	      0.00000000	      0.00000000	      0.00000000	      0.00000000	      0.00000000	      0.00000000	      0.00000000	      0.00000000	      0.00000000	      0.00000000	      0.00000000	      0.00000000	      0.00000000
      0.29000000	     93.43751513	    277.56491549	      7.91370426	     -0.70538796	      0.00000000	      0.09659232	      0.00000000	      9.65197512	     -0.00000000	      0.00000000	      0.00000000	      0.00000000	      0.00000000	      0.00000000	      0.00000000	      0.00000000	      0.00000000	      0.00000000	      0.00000000	      0.00000000	      0.00000000	      0.00000000	      0.00000000	      0.00000000	      0.00000000	      0.00000000	      0.00000000	      0.00000000	      0.00000000	      0.00000000	      0.00000000	      0.00000000	      0.00000000	      0.00000000	      0.00000000	      0.00000000	      0.00000000	      0.00000000	      0.00000000	      0.00000000	      0.00000000	      0.00000000	      0.00000000	      0.00000000	      0.00000000
      0.30000000	     71.39901933	    195.62122108	      5.25460389	     -0.70127766	      0.00000000	      0.09731670	      0.00000000	      7.35579307	     -0.00000000	      0.00000000	      0.00000000	      0.00000000	      0.00000000	      0.00000000	      0.00000000	      0.00000000	      0.00000000	      0.00000000	      0.00000000	      0.00000000	      0.00000000	      0.00000000	      0.00000000	      0.00000000	      0.00000000	      0.00000000	      0.00000000	      0.00000000	      0.00000000	      0.00000000	      0.00000000	      0.00000000	      0.00000000	      0.00000000	      0.00000000	      0.00000000	      0.00000000	      0.00000000	      0.00000000	      0.00000000	      0.00000000	      0.00000000	      0.00000000	      0.00000000	      0.00000000
      0.31000000	     50.99552763	    130.62782241	      3.24995086	     -0.69729471	      0.00000000	      0.09797051	      0.00000000	      5.26624810	     -0.00000000	      0.00000000	      0.00000000	      0.00000000	      0.00000000	      0.00000000	      0.00000000	      0.00000000	      0.00000000	      0.00000000	      0.00000000	      0.00000000	      0.00000000	      0.00000000	      0.00000000	      0.00000000	      0.00000000	      0.00000000	      0.00000000	      0.00000000	      0.00000000	      0.00000000	      0.00000000	      0.00000000	      0.00000000	      0.00000000	      0.00000000	      0.00000000	      0.00000000	      0.00000000	      0.00000000	      0.00000000	      0.00000000	      0.00000000	      0.00000000	      0.00000000	      0.00000000
